<svg width="27" height="26" viewBox="0 0 27 26" fill="none" xmlns="http://www.w3.org/2000/svg">
<path d="M2.36 -0.00756836H25.4075C26.1887 -0.00756836 26.8925 0.696182 26.8925 1.47743V24.5249C26.8925 25.3062 26.1887 26.0099 25.4075 26.0099H2.36C1.57875 26.0099 0.875 25.3062 0.875 24.5249V1.47743C0.875 0.696182 1.57875 -0.00756836 2.36 -0.00756836ZM19.3512 14.6012H22.945L23.1012 11.1637H19.3512V8.62493C19.3512 7.64868 19.5462 7.10118 20.7962 7.10118H22.9837L23.0625 3.89743C23.0625 3.89743 22.0863 3.74118 20.68 3.74118C17.2425 3.74118 15.7188 5.88993 15.7188 8.19493V11.1637H13.18V14.6012H15.7188V24.1324H19.3512V14.6012Z" fill="white"/>
</svg>
