<svg width="32" height="32" viewBox="0 0 32 32" fill="none" xmlns="http://www.w3.org/2000/svg">
<path d="M16 29.75C13.0517 29.75 10.93 29.7485 9.27583 29.5881C7.64062 29.4296 6.59458 29.125 5.75979 28.6004C4.80568 28.001 3.99889 27.1943 3.39937 26.2402C2.875 25.4054 2.57021 24.3594 2.41188 22.7242C2.25146 21.07 2.25 18.9483 2.25 16C2.25 13.0517 2.25146 10.93 2.41188 9.27583C2.57021 7.64062 2.875 6.59458 3.39937 5.75979C3.99887 4.80566 4.80566 3.99887 5.75979 3.39937C6.59458 2.875 7.64062 2.57021 9.27583 2.41188C10.9298 2.25146 13.0515 2.25 16 2.25C18.9483 2.25 21.07 2.25146 22.7242 2.41188C24.3594 2.57021 25.4054 2.875 26.2402 3.39937C27.1943 3.99889 28.001 4.80568 28.6004 5.75979C29.125 6.59458 29.4296 7.64062 29.5881 9.27583C29.7485 10.93 29.75 13.0517 29.75 16C29.75 18.9483 29.7485 21.07 29.5881 22.7242C29.4296 24.3594 29.125 25.4054 28.6004 26.2402C28.001 27.1942 27.1942 28.001 26.2402 28.6004C25.4054 29.125 24.3594 29.4296 22.7242 29.5881C21.07 29.7485 18.9483 29.75 16 29.75Z" stroke="white" stroke-width="4"/>
<path d="M16 22.25C19.4518 22.25 22.25 19.4518 22.25 16C22.25 12.5482 19.4518 9.75 16 9.75C12.5482 9.75 9.75 12.5482 9.75 16C9.75 19.4518 12.5482 22.25 16 22.25Z" stroke="white" stroke-width="4"/>
<path d="M24.125 9.75C25.1605 9.75 26 8.91053 26 7.875C26 6.83947 25.1605 6 24.125 6C23.0895 6 22.25 6.83947 22.25 7.875C22.25 8.91053 23.0895 9.75 24.125 9.75Z" fill="white"/>
</svg>
