<svg width="32" height="32" viewBox="0 0 32 32" fill="none" xmlns="http://www.w3.org/2000/svg">
<path d="M13.9999 24C16.6521 24 19.1957 22.9464 21.071 21.0711C22.9464 19.1957 23.9999 16.6522 23.9999 14C23.9999 11.3478 22.9464 8.80429 21.071 6.92893C19.1957 5.05356 16.6521 3.99999 13.9999 3.99999C11.3478 3.99999 8.80424 5.05356 6.92888 6.92893C5.05352 8.80429 3.99995 11.3478 3.99995 14C3.99995 16.6522 5.05352 19.1957 6.92888 21.0711C8.80424 22.9464 11.3478 24 13.9999 24ZM23.2919 21.594L29.9979 28.3L28.2999 29.998L21.5939 23.292C19.2102 25.2401 16.1689 26.1976 13.0991 25.9664C10.0292 25.7352 7.16567 24.333 5.10058 22.0499C3.0355 19.7667 1.92689 16.7772 2.00401 13.6997C2.08114 10.6221 3.33811 7.69187 5.51497 5.51501C7.69182 3.33816 10.622 2.08119 13.6996 2.00406C16.7772 1.92693 19.7667 3.03555 22.0498 5.10063C24.333 7.16571 25.7352 10.0293 25.9664 13.0991C26.1975 16.169 25.2401 19.2103 23.2919 21.594Z" fill="black"/>
</svg>
