<svg width="40" height="40" viewBox="0 0 40 40" fill="none" xmlns="http://www.w3.org/2000/svg">
<g clip-path="url(#clip0_2139_482)">
<path d="M19.7657 20.2497C15.5391 20.2497 12.1343 16.8449 12.1343 12.6183C12.1343 8.39161 15.5391 4.98682 19.7657 4.98682C23.9924 4.98682 27.3972 8.39161 27.3972 12.6183C27.3972 16.8449 23.9924 20.2497 19.7657 20.2497ZM19.7657 7.33495C16.8306 7.33495 14.4824 9.68309 14.4824 12.6183C14.4824 15.5534 16.8306 17.9016 19.7657 17.9016C22.7009 17.9016 25.049 15.5534 25.049 12.6183C25.049 9.68309 22.7009 7.33495 19.7657 7.33495Z" fill="white"/>
<path d="M9.43482 29.5249V35.0137H7.08691V29.5249C7.08691 24.8873 12.781 21.3066 20.0017 21.3066C27.2223 21.3066 32.9164 24.8873 32.9164 29.5249V35.0137H30.5685V29.5249C30.5685 26.355 25.7545 23.6545 20.0017 23.6545C14.2488 23.6545 9.43482 26.355 9.43482 29.5249Z" fill="white"/>
</g>
<defs>
<clipPath id="clip0_2139_482">
<rect width="40" height="40" fill="white"/>
</clipPath>
</defs>
</svg>
