<?xml version="1.0" encoding="UTF-8"?>
<!DOCTYPE svg PUBLIC "-//W3C//DTD SVG 1.1//EN" "http://www.w3.org/Graphics/SVG/1.1/DTD/svg11.dtd">
<!-- Creator: CorelDRAW -->
<svg xmlns="http://www.w3.org/2000/svg" xml:space="preserve" width="17.78mm" height="17.78mm" version="1.1" style="shape-rendering:geometricPrecision; text-rendering:geometricPrecision; image-rendering:optimizeQuality; fill-rule:evenodd; clip-rule:evenodd"
viewBox="0 0 1778 1778"
 xmlns:xlink="http://www.w3.org/1999/xlink"
 xmlns:xodm="http://www.corel.com/coreldraw/odm/2003">
 <defs>
  <style type="text/css">
   <![CDATA[
    .str0 {stroke:black;stroke-width:141.11;stroke-linecap:round;stroke-linejoin:round;stroke-miterlimit:22.9256}
    .fil1 {fill:none}
    .fil0 {fill:#FFD500}
   ]]>
  </style>
 </defs>
 <g id="Слой_x0020_1">
  <metadata id="CorelCorpID_0Corel-Layer"/>
  <path class="fil0" d="M573.6 748.45c4.56,60.06 7.24,180.87 6.07,240.85 -1.18,59.99 -6.22,59.16 -59.22,10.36 -53.01,-48.79 -154,-145.55 -204.26,-196.6 -50.27,-51.05 -49.82,-56.4 -1.37,-67.67 48.45,-11.27 144.89,-28.46 196.34,-37.39 51.44,-8.94 57.88,-9.62 62.44,50.45z"/>
  <path class="fil0" d="M623.24 823.21c1.69,122.44 2.16,358.67 0.3,476.79 -1.86,118.12 -6.05,118.12 -27.66,117 -21.62,-1.11 -60.68,-3.34 -79.47,-7.96 -18.8,-4.62 -17.33,-11.63 -5.03,-71.07 12.3,-59.43 35.43,-171.28 38.75,-236.41 3.32,-65.12 -13.18,-83.51 -22.98,-142.98 -9.8,-59.47 -12.89,-160.03 -6.69,-211.7 6.19,-51.68 21.67,-54.49 39.1,-56.91 17.43,-2.42 36.79,-4.47 47.94,-1.16 11.14,3.3 14.05,11.95 15.74,134.4z"/>
  <path class="fil0" d="M785.98 758.85c4.1,122.44 5.24,358.67 0.73,476.79 -4.51,118.12 -14.67,118.12 -67.08,117 -52.43,-1.11 -147.16,-3.34 -192.73,-7.96 -45.59,-4.62 -42.03,-11.63 -12.2,-71.07 29.83,-59.43 85.93,-171.28 93.98,-236.41 8.05,-65.12 -31.97,-83.51 -55.73,-142.98 -23.77,-59.47 -31.26,-160.03 -16.23,-211.7 15.01,-51.68 52.56,-54.49 94.83,-56.91 42.27,-2.42 89.22,-4.47 116.26,-1.16 27.02,3.3 34.07,11.95 38.17,134.4z"/>
  <path class="fil0" d="M846.32 666.12c2.15,122.44 2.75,358.67 0.39,476.79 -2.37,118.12 -7.69,118.12 -35.16,117 -27.48,-1.11 -77.13,-3.34 -101.01,-7.96 -23.89,-4.62 -22.03,-11.63 -6.39,-71.07 15.63,-59.43 45.03,-171.28 49.25,-236.41 4.22,-65.12 -16.75,-83.51 -29.21,-142.98 -12.45,-59.47 -16.38,-160.03 -8.5,-211.7 7.87,-51.68 27.54,-54.49 49.7,-56.91 22.15,-2.42 46.76,-4.47 60.93,-1.16 14.16,3.3 17.86,11.95 20,134.4z"/>
  <g id="_2528238173184">
   <path class="fil0" d="M1094.56 814.64c2.85,103.95 3.64,304.49 0.51,404.77 -3.14,100.27 -10.21,100.27 -46.65,99.32 -36.46,-0.94 -102.33,-2.84 -134.01,-6.76 -31.71,-3.92 -29.23,-9.87 -8.49,-60.33 20.75,-50.45 59.75,-145.41 65.35,-200.7 5.6,-55.28 -22.23,-70.89 -38.75,-121.38 -16.53,-50.48 -21.74,-135.85 -11.28,-179.71 10.43,-43.88 36.54,-46.26 65.93,-48.32 29.4,-2.05 62.04,-3.79 80.85,-0.98 18.78,2.8 23.69,10.14 26.54,114.09z"/>
   <path class="fil0" d="M974.89 821.62c2.15,103.95 2.75,304.49 0.39,404.77 -2.37,100.27 -7.69,100.27 -35.16,99.32 -27.48,-0.94 -77.13,-2.84 -101.01,-6.76 -23.89,-3.92 -22.03,-9.87 -6.39,-60.33 15.63,-50.45 45.03,-145.41 49.25,-200.7 4.22,-55.28 -16.75,-70.89 -29.21,-121.38 -12.45,-50.48 -16.38,-135.85 -8.5,-179.71 7.87,-43.88 27.54,-46.26 49.7,-48.32 22.15,-2.05 46.76,-3.79 60.93,-0.98 14.16,2.8 17.86,10.14 20,114.09z"/>
  </g>
  <g id="_2528238170256">
   <path class="fil0" d="M1009.92 527.72c2.85,158.15 3.64,463.26 0.51,615.82 -3.14,152.57 -10.21,152.57 -46.65,151.12 -36.46,-1.43 -102.33,-4.31 -134.01,-10.28 -31.71,-5.97 -29.23,-15.02 -8.49,-91.79 20.75,-76.76 59.75,-221.23 65.35,-305.35 5.6,-84.11 -22.23,-107.86 -38.75,-184.67 -16.53,-76.81 -21.74,-206.7 -11.28,-273.43 10.43,-66.75 36.54,-70.38 65.93,-73.51 29.4,-3.12 62.04,-5.77 80.85,-1.5 18.78,4.27 23.69,15.44 26.54,173.59z"/>
   <path class="fil0" d="M890.25 538.34c2.15,158.15 2.75,463.26 0.39,615.82 -2.37,152.57 -7.69,152.57 -35.16,151.12 -27.48,-1.43 -77.13,-4.31 -101.01,-10.28 -23.89,-5.97 -22.03,-15.02 -6.39,-91.79 15.63,-76.76 45.03,-221.23 49.25,-305.35 4.22,-84.11 -16.75,-107.86 -29.21,-184.67 -12.45,-76.81 -16.38,-206.7 -8.5,-273.43 7.87,-66.75 27.54,-70.38 49.7,-73.51 22.15,-3.12 46.76,-5.77 60.93,-1.5 14.16,4.27 17.86,15.44 20,173.59z"/>
  </g>
  <g id="_2528238170160">
   <path class="fil0" d="M1151.84 805.43c2.85,109.63 3.64,321.15 0.51,426.91 -3.14,105.76 -10.21,105.76 -46.65,104.76 -36.46,-1 -102.33,-2.99 -134.01,-7.13 -31.71,-4.14 -29.23,-10.41 -8.49,-63.63 20.75,-53.22 59.75,-153.36 65.35,-211.68 5.6,-58.31 -22.23,-74.77 -38.75,-128.02 -16.53,-53.25 -21.74,-143.29 -11.28,-189.56 10.43,-46.27 36.54,-48.79 65.93,-50.95 29.4,-2.17 62.04,-4 80.85,-1.04 18.78,2.95 23.69,10.7 26.54,120.34z"/>
   <path class="fil0" d="M1032.17 812.79c2.15,109.63 2.75,321.15 0.39,426.91 -2.37,105.76 -7.69,105.76 -35.16,104.76 -27.48,-0.99 -77.13,-2.99 -101.01,-7.13 -23.89,-4.13 -22.03,-10.41 -6.39,-63.63 15.63,-53.21 45.03,-153.36 49.25,-211.68 4.22,-58.31 -16.75,-74.77 -29.21,-128.02 -12.45,-53.25 -16.38,-143.29 -8.5,-189.55 7.87,-46.28 27.54,-48.79 49.7,-50.96 22.15,-2.17 46.76,-4 60.93,-1.04 14.16,2.96 17.86,10.7 20,120.34z"/>
  </g>
  <g id="_2528238170832">
   <path class="fil0" d="M1223 830.15c2.85,113.5 3.64,332.49 0.51,441.99 -3.14,109.5 -10.21,109.5 -46.65,108.46 -36.46,-1.03 -102.33,-3.09 -134.01,-7.38 -31.71,-4.28 -29.23,-10.78 -8.49,-65.88 20.75,-55.09 59.75,-158.78 65.35,-219.16 5.6,-60.37 -22.23,-77.41 -38.75,-132.54 -16.53,-55.13 -21.74,-148.35 -11.28,-196.25 10.43,-47.91 36.54,-50.52 65.93,-52.76 29.4,-2.24 62.04,-4.14 80.85,-1.08 18.78,3.06 23.69,11.08 26.54,124.6z"/>
   <path class="fil0" d="M1103.33 837.77c2.15,113.5 2.75,332.49 0.39,441.99 -2.37,109.5 -7.69,109.5 -35.16,108.46 -27.48,-1.02 -77.13,-3.09 -101.01,-7.37 -23.89,-4.29 -22.03,-10.79 -6.39,-65.89 15.63,-55.09 45.03,-158.78 49.25,-219.16 4.22,-60.36 -16.75,-77.41 -29.21,-132.54 -12.45,-55.13 -16.38,-148.35 -8.5,-196.25 7.87,-47.91 27.54,-50.51 49.7,-52.76 22.15,-2.24 46.76,-4.14 60.93,-1.07 14.16,3.06 17.86,11.07 20,124.59z"/>
  </g>
  <g id="_2528238170064">
   <path class="fil0" d="M1409.09 766.85c2.85,38.03 3.64,111.41 0.51,148.1 -3.14,36.69 -10.21,36.69 -46.65,36.34 -36.46,-0.35 -102.33,-1.04 -134.01,-2.48 -31.71,-1.43 -29.23,-3.61 -8.49,-22.07 20.75,-18.46 59.75,-53.2 65.35,-73.43 5.6,-20.23 -22.23,-25.94 -38.75,-44.41 -16.53,-18.48 -21.74,-49.71 -11.28,-65.76 10.43,-16.05 36.54,-16.93 65.93,-17.68 29.4,-0.75 62.04,-1.39 80.85,-0.36 18.78,1.03 23.69,3.71 26.54,41.75z"/>
   <path class="fil0" d="M1289.42 769.4c2.15,38.03 2.75,111.41 0.39,148.1 -2.37,36.69 -7.69,36.69 -35.16,36.34 -27.48,-0.34 -77.13,-1.04 -101.01,-2.47 -23.89,-1.44 -22.03,-3.61 -6.39,-22.08 15.63,-18.46 45.03,-53.2 49.25,-73.43 4.22,-20.23 -16.75,-25.94 -29.21,-44.41 -12.45,-18.47 -16.38,-49.71 -8.5,-65.76 7.87,-16.05 27.54,-16.92 49.7,-17.67 22.15,-0.76 46.76,-1.39 60.93,-0.37 14.16,1.03 17.86,3.72 20,41.75z"/>
  </g>
  <path class="fil1 str0" d="M837.43 353.57c16.33,-36.65 24.5,-54.97 35.88,-60.61 9.87,-4.91 21.47,-4.91 31.35,0 11.38,5.64 19.55,23.96 35.88,60.61l130.1 291.88c4.84,10.83 7.25,16.25 10.99,20.4 3.3,3.67 7.34,6.6 11.85,8.61 5.1,2.27 11,2.9 22.8,4.14l317.8 33.54c39.9,4.21 59.85,6.32 68.73,15.39 7.71,7.88 11.3,18.92 9.69,29.83 -1.85,12.56 -16.75,25.98 -46.55,52.84l-237.4 213.94c-8.81,7.94 -13.22,11.91 -16,16.75 -2.48,4.28 -4.02,9.03 -4.53,13.94 -0.59,5.55 0.64,11.35 3.1,22.96l66.31 312.61c8.32,39.25 12.49,58.87 6.6,70.12 -5.11,9.77 -14.5,16.59 -25.37,18.43 -12.52,2.12 -29.9,-7.9 -64.65,-27.95l-276.82 -159.66c-10.28,-5.93 -15.41,-8.89 -20.87,-10.05 -4.84,-1.02 -9.83,-1.02 -14.67,0 -5.46,1.16 -10.59,4.12 -20.87,10.05l-276.82 159.66c-34.75,20.05 -52.13,30.07 -64.65,27.95 -10.87,-1.84 -20.26,-8.66 -25.37,-18.43 -5.88,-11.25 -1.72,-30.87 6.6,-70.12l66.31 -312.61c2.46,-11.61 3.69,-17.41 3.1,-22.96 -0.51,-4.91 -2.05,-9.66 -4.52,-13.94 -2.79,-4.84 -7.2,-8.81 -16.01,-16.75l-237.39 -213.94c-29.81,-26.86 -44.71,-40.28 -46.56,-52.84 -1.61,-10.91 1.98,-21.95 9.69,-29.83 8.88,-9.07 28.83,-11.18 68.73,-15.39l317.8 -33.54c11.8,-1.24 17.69,-1.87 22.8,-4.14 4.51,-2.01 8.55,-4.94 11.85,-8.61 3.74,-4.15 6.15,-9.57 10.98,-20.4l130.11 -291.88z"/>
 </g>
</svg>
