<?xml version="1.0" encoding="UTF-8"?>
<!DOCTYPE svg PUBLIC "-//W3C//DTD SVG 1.1//EN" "http://www.w3.org/Graphics/SVG/1.1/DTD/svg11.dtd">
<!-- Creator: CorelDRAW -->
<svg xmlns="http://www.w3.org/2000/svg" xml:space="preserve" width="17.78mm" height="17.78mm" version="1.1" style="shape-rendering:geometricPrecision; text-rendering:geometricPrecision; image-rendering:optimizeQuality; fill-rule:evenodd; clip-rule:evenodd"
viewBox="0 0 1778 1778"
 xmlns:xlink="http://www.w3.org/1999/xlink"
 xmlns:xodm="http://www.corel.com/coreldraw/odm/2003">
 <defs>
  <style type="text/css">
   <![CDATA[
    .str0 {stroke:black;stroke-width:141.11;stroke-linecap:round;stroke-linejoin:round;stroke-miterlimit:22.9256}
    .fil0 {fill:none}
   ]]>
  </style>
 </defs>
 <g id="Слой_x0020_1">
  <metadata id="CorelCorpID_0Corel-Layer"/>
  <path class="fil0 str0" d="M837.43 353.57c16.33,-36.65 24.5,-54.97 35.88,-60.61 9.87,-4.91 21.47,-4.91 31.35,0 11.38,5.64 19.55,23.96 35.88,60.61l130.1 291.88c4.84,10.83 7.25,16.25 10.99,20.4 3.3,3.67 7.34,6.6 11.85,8.61 5.1,2.27 11,2.9 22.8,4.14l317.8 33.54c39.9,4.21 59.85,6.32 68.73,15.39 7.71,7.88 11.3,18.92 9.69,29.83 -1.85,12.56 -16.75,25.98 -46.55,52.84l-237.4 213.94c-8.81,7.94 -13.22,11.91 -16,16.75 -2.48,4.28 -4.02,9.03 -4.53,13.94 -0.59,5.55 0.64,11.35 3.1,22.96l66.31 312.61c8.32,39.25 12.49,58.87 6.6,70.12 -5.11,9.77 -14.5,16.59 -25.37,18.43 -12.52,2.12 -29.9,-7.9 -64.65,-27.95l-276.82 -159.66c-10.28,-5.93 -15.41,-8.89 -20.87,-10.05 -4.84,-1.02 -9.83,-1.02 -14.67,0 -5.46,1.16 -10.59,4.12 -20.87,10.05l-276.82 159.66c-34.75,20.05 -52.13,30.07 -64.65,27.95 -10.87,-1.84 -20.26,-8.66 -25.37,-18.43 -5.88,-11.25 -1.72,-30.87 6.6,-70.12l66.31 -312.61c2.46,-11.61 3.69,-17.41 3.1,-22.96 -0.51,-4.91 -2.05,-9.66 -4.52,-13.94 -2.79,-4.84 -7.2,-8.81 -16.01,-16.75l-237.39 -213.94c-29.81,-26.86 -44.71,-40.28 -46.56,-52.84 -1.61,-10.91 1.98,-21.95 9.69,-29.83 8.88,-9.07 28.83,-11.18 68.73,-15.39l317.8 -33.54c11.8,-1.24 17.69,-1.87 22.8,-4.14 4.51,-2.01 8.55,-4.94 11.85,-8.61 3.74,-4.15 6.15,-9.57 10.98,-20.4l130.11 -291.88z"/>
 </g>
</svg>
