<svg width="37" height="36" viewBox="0 0 37 36" fill="none" xmlns="http://www.w3.org/2000/svg">
<path fill-rule="evenodd" clip-rule="evenodd" d="M4.83369 18C4.83369 10.176 11.1763 3.83333 19.0003 3.83333C26.8243 3.83333 33.167 10.176 33.167 18C33.167 25.824 26.8243 32.1667 19.0003 32.1667C16.2133 32.1667 13.6191 31.3637 11.4303 29.9768C11.0229 29.7188 10.5238 29.6498 10.0617 29.7877L5.26314 31.2198L7.06988 26.9922C7.28343 26.4925 7.23998 25.9202 6.95344 25.4585C5.60983 23.2933 4.83369 20.7398 4.83369 18ZM19.0003 0.5C9.33538 0.5 1.50036 8.33502 1.50036 18C1.50036 21.0635 2.28893 23.9472 3.67474 26.4545L0.801111 33.1783C0.547075 33.7728 0.659678 34.4605 1.09003 34.9428C1.52038 35.4253 2.19086 35.6153 2.81031 35.4303L10.3093 33.1925C12.8711 34.6608 15.8398 35.5 19.0003 35.5C28.6653 35.5 36.5003 27.665 36.5003 18C36.5003 8.33502 28.6653 0.5 19.0003 0.5ZM22.8212 21.6373L20.6308 23.1802C19.605 22.5958 18.4708 21.7802 17.3332 20.6425C16.1505 19.4598 15.2737 18.2388 14.6272 17.1188L16.0192 15.9373C16.6165 15.4303 16.78 14.5756 16.412 13.8838L14.6384 10.5505C14.3996 10.1016 13.9689 9.78633 13.4689 9.69423C12.9689 9.60215 12.4542 9.74333 12.0711 10.0777L11.5453 10.5366C10.2807 11.6402 9.53283 13.4538 10.1527 15.2902C10.7953 17.1938 12.1667 20.19 14.9762 22.9995C17.9988 26.0222 21.0692 27.2125 22.8647 27.6748C24.3113 28.0472 25.6803 27.548 26.645 26.762L27.6308 25.9587C28.0525 25.6152 28.28 25.0873 28.2403 24.5448C28.2005 24.0023 27.8985 23.5133 27.4312 23.2348L24.634 21.5682C24.069 21.2317 23.359 21.2587 22.8212 21.6373Z" fill="white"/>
</svg>
